<svg xmlns="http://www.w3.org/2000/svg" viewBox="0 0 512 512">
  <rect width="512" height="512" fill="#2563eb" rx="64"/>
  <path fill="white" d="M256 80c-44.2 0-80 35.8-80 80 0 28.1 14.4 52.9 36.3 67.3-26.4 14.9-45.7 41.1-53.1 71.8-2.1 8.6 4.2 17.1 13 18.9 8.8 1.8 17.1-4.2 18.9-13 6.3-25.8 26.8-45.6 52.4-50.6 5.3-1 10.8-1 16.1 0 25.6 5 46.1 24.8 52.4 50.6 1.8 8.8 10.1 14.8 18.9 13 8.8-1.8 15.1-10.3 13-18.9-7.4-30.7-26.7-56.9-53.1-71.8 21.9-14.4 36.3-39.2 36.3-67.3 0-44.2-35.8-80-80-80zm0 128c-26.5 0-48-21.5-48-48s21.5-48 48-48 48 21.5 48 48-21.5 48-48 48zm96 192H160c-8.8 0-16 7.2-16 16v16c0 8.8 7.2 16 16 16h192c8.8 0 16-7.2 16-16v-16c0-8.8-7.2-16-16-16z"/>
</svg>
